<?xml version="1.0" encoding="UTF-8"?>
<svg version="1.1" xmlns="http://www.w3.org/2000/svg" width="770" height="910">
<path d="M0 0 C0.79925986 0.00234117 1.59851972 0.00468233 2.42199957 0.00709444 C3.26704066 0.005641 4.11208175 0.00418756 4.98273015 0.00269008 C7.85134385 -0.00099717 10.71990531 0.00252901 13.58851874 0.00595194 C15.65106956 0.0048012 17.71362019 0.00321399 19.77617037 0.0012247 C25.47277282 -0.00297504 31.16935866 -0.00087505 36.86596119 0.00221092 C42.99826387 0.00446219 49.13056357 0.00098677 55.26286566 -0.00176901 C66.59139502 -0.00597049 77.91991755 -0.00558974 89.24844673 -0.00285754 C99.71229903 -0.00034614 110.17614936 0.00031667 120.64000189 -0.00088018 C121.33296142 -0.00095657 122.02592094 -0.00103295 122.73987924 -0.00111165 C125.55253034 -0.00142297 128.36518144 -0.00174137 131.17783254 -0.00207142 C157.58531438 -0.00513331 183.99279282 -0.00235237 210.40027414 0.00302548 C233.88335294 0.00777141 257.36642632 0.00734679 280.84950507 0.00256449 C307.20739223 -0.00278527 333.56527638 -0.0049162 359.92316401 -0.00182325 C362.73081521 -0.00150251 365.53846641 -0.00118967 368.34611762 -0.00088018 C369.38315959 -0.00076157 369.38315959 -0.00076157 370.44115191 -0.00064055 C380.90074661 0.00049894 391.36033914 -0.0008371 401.81993353 -0.00335974 C413.70794697 -0.0062125 425.595954 -0.00542131 437.48396719 -0.00007899 C443.55585067 0.0025592 449.62772312 0.00356112 455.69960654 0.00027186 C461.24842817 -0.00268871 466.79722844 -0.00110233 472.34604812 0.00424941 C474.36284616 0.00537463 476.37964597 0.00478013 478.39644289 0.00237362 C481.11902827 -0.00062805 483.84153861 0.0024117 486.56411994 0.00709444 C487.36337979 0.00475328 488.16263965 0.00241211 488.98611951 0 C494.37890942 0.01878524 494.37890942 0.01878524 495.49305975 1.13293558 C495.59354073 3.10246319 495.62230478 5.07565501 495.62448752 7.0477429 C495.62832866 8.34164012 495.63216981 9.63553733 495.63612735 10.96864355 C495.63534696 12.42341677 495.63446814 13.87818994 495.63350165 15.33296305 C495.63608304 16.86382509 495.63909556 18.39468646 495.64250505 19.92554688 C495.65060565 24.15291056 495.65236633 28.38025729 495.65310252 32.60762781 C495.65494791 37.15935251 495.6624929 41.7110683 495.66923773 46.26278788 C495.68284595 56.2280914 495.68885038 66.19339092 495.69324839 76.15870219 C495.69600811 82.38061537 495.7002451 88.60252699 495.70475256 94.82443911 C495.71695129 112.04722629 495.72724758 129.27001222 495.73062766 146.49280363 C495.73084722 147.59616876 495.73106679 148.69953389 495.73129301 149.83633433 C495.73151129 150.94237632 495.73172956 152.04841831 495.73195446 153.18797672 C495.73239792 155.42931392 495.73284449 157.67065112 495.73329413 159.91198832 C495.73351556 161.0237744 495.73373699 162.13556048 495.73396513 163.28103705 C495.73790951 181.27892836 495.75534983 199.27677908 495.77865365 217.27465472 C495.80238027 235.74818867 495.8148302 254.22170228 495.81599557 272.6952517 C495.8169119 283.06907723 495.822653 293.44284997 495.84081519 303.81666094 C495.85623423 312.65504815 495.8613262 321.49336628 495.85307708 330.33176438 C495.84917621 334.83952814 495.85007244 339.3471529 495.86413443 343.85489947 C495.87690795 347.98756293 495.87564567 352.11998342 495.86354372 356.25264671 C495.86159261 357.74205563 495.86463789 359.23148198 495.87338808 360.72086648 C495.97509252 379.21388398 491.38168833 394.14976987 478.2860285 407.43762308 C460.85125448 424.26278962 441.21819707 425.56696865 418.11805975 425.82043558 C416.01387276 425.85367837 413.90970518 425.8881742 411.80555975 425.92395121 C406.70150171 426.00804794 401.59748156 426.07522788 396.49305975 426.13293558 C396.48809453 427.08128543 396.48809453 427.08128543 396.48302901 428.04879385 C396.40155327 443.4837117 396.30938207 458.91852391 396.20553267 474.35330588 C396.15556417 481.8176704 396.10912049 489.2820248 396.07118475 496.74646097 C396.03808306 503.25792048 395.99815386 509.76929759 395.9502697 516.28066576 C395.92518386 519.72342447 395.90335147 523.16612981 395.88971579 526.60895449 C395.87271326 530.46692011 395.84364508 534.32462731 395.81190741 538.18249613 C395.80866713 539.86565172 395.80866713 539.86565172 395.80536139 541.58281046 C395.62612325 558.7566862 392.56717935 572.72957312 381.49305975 586.13293558 C380.89751288 586.85481058 380.301966 587.57668558 379.68837225 588.32043558 C370.59910256 598.30692933 357.40357327 604.7374966 343.9735285 605.40637308 C335.13792723 605.6709855 326.78951361 605.487366 318.49305975 602.13293558 C317.53399725 601.75395121 316.57493475 601.37496683 315.58680975 600.98449808 C300.32237745 594.17844966 290.16726728 581.88587516 284.21962225 566.42199808 C282.84250413 562.08333561 282.36488054 558.02696566 282.33484137 553.48246866 C282.32015814 551.79353495 282.32015814 551.79353495 282.30517828 550.07048136 C282.29942282 548.84480952 282.29366736 547.61913767 282.28773749 546.35632426 C282.27783789 545.05836924 282.26793829 543.76041422 282.25773871 542.42312723 C282.23076203 538.8719032 282.20971342 535.32066598 282.18973672 531.7693966 C282.16783239 528.05512818 282.14046551 524.34090008 282.11368048 520.62666422 C282.06381363 513.59678332 282.01885258 506.56687996 281.97565812 499.53695524 C281.91699008 490.03490239 281.85073556 480.53290264 281.78490794 471.0308972 C281.68142725 456.06494579 281.58807564 441.09894867 281.49305975 426.13293558 C257.40305975 426.13293558 233.31305975 426.13293558 208.49305975 426.13293558 C207.28395121 428.55115266 207.37247807 430.05751989 207.37953436 432.75897318 C207.37960486 433.73436045 207.37967535 434.70974772 207.37974799 435.71469218 C207.38491431 436.78889414 207.39008063 437.86309611 207.3954035 438.96984965 C207.39686377 440.09857493 207.39832404 441.22730021 207.39982855 442.39022928 C207.40364322 444.85002425 207.40976881 447.30981643 207.41789496 449.76960093 C207.43063558 453.67178494 207.43716954 457.57393501 207.44203436 461.47613627 C207.45408806 470.48017598 207.47600926 479.48418665 207.498263 488.48820597 C207.52013694 497.36715363 207.53799271 506.24608618 207.54899848 515.12505442 C207.55544004 518.95243147 207.56795479 522.77975727 207.58070624 526.60711771 C207.67886409 571.59816446 207.67886409 571.59816446 191.24305975 588.94543558 C178.2182555 601.13135414 163.73052804 605.70318144 146.21180975 605.40637308 C134.82541023 604.94190364 125.5485042 600.85053653 116.49305975 594.13293558 C115.8485285 593.67145121 115.20399725 593.20996683 114.53993475 592.73449808 C103.11785672 583.83350935 96.6263321 570.16541131 94.49305975 556.13293558 C94.21957048 552.31286379 94.19230186 548.50794407 94.19008124 544.67907816 C94.18164191 543.58005167 94.17320258 542.48102518 94.16450751 541.34869486 C94.13887247 537.74161401 94.12661667 534.13461506 94.1141535 530.52746683 C94.09795565 527.99935884 94.0807733 525.47125698 94.06265509 522.94316202 C94.02172472 516.9760845 93.9886885 511.00902 93.96018094 505.04187465 C93.90611822 493.75038837 93.83738009 482.45900536 93.76224196 471.16763979 C93.73963867 467.48158528 93.72321616 463.79554184 93.70752203 460.10945231 C93.64667062 448.74670297 93.50211043 437.4564496 92.49305975 426.13293558 C91.20319159 426.11835306 89.91332343 426.10377054 88.58436835 426.08874613 C83.73465923 426.03016015 78.88538562 425.95293854 74.0360285 425.87048441 C71.94918709 425.83751566 69.86226251 425.80939944 67.77528632 425.78650004 C46.555349 425.54744513 27.70301523 423.96317462 11.668841 408.37512308 C10.95083319 407.63520121 10.23282538 406.89527933 9.49305975 406.13293558 C8.84723944 405.49613871 8.20141913 404.85934183 7.5360285 404.20324808 C-4.58198834 391.47801035 -6.97347633 375.39443796 -6.87443292 358.53608805 C-6.87646105 356.98789135 -6.87980483 355.43969592 -6.8843385 353.89150453 C-6.89293206 349.66767978 -6.88297239 345.44407731 -6.86979616 341.220272 C-6.85884898 336.65395465 -6.86531875 332.08765668 -6.86958063 327.5213328 C-6.87520001 318.59105125 -6.86492754 309.66085593 -6.84929267 300.73058907 C-6.83172798 290.33400825 -6.83033293 279.937444 -6.82967708 269.54085066 C-6.82799101 251.0004821 -6.81219647 232.46015278 -6.78819025 213.91980082 C-6.76489717 195.91719334 -6.75076013 177.91461074 -6.74717462 159.91198832 C-6.74695185 158.80155705 -6.74672909 157.69112579 -6.74649957 156.54704509 C-6.74605698 154.3101415 -6.74561495 152.07323792 -6.7451735 149.83633433 C-6.74495393 148.7329692 -6.74473437 147.62960407 -6.74450815 146.49280363 C-6.74418417 144.84200448 -6.74418417 144.84200448 -6.74385364 143.15785586 C-6.74015784 126.00900447 -6.72880123 108.8601571 -6.71637775 91.71131012 C-6.71193746 85.48989716 -6.70850133 79.26848458 -6.70575562 73.04707066 C-6.70133246 63.18835451 -6.69359005 53.32965322 -6.67898121 43.47094647 C-6.67235543 38.96451854 -6.66730527 34.45810378 -6.66652048 29.95167071 C-6.66573773 25.83365806 -6.66037247 21.71567881 -6.65120098 17.59767654 C-6.6486779 16.10139398 -6.6478657 14.60510745 -6.64885977 13.1088231 C-6.64994357 11.0884603 -6.64436576 9.06809709 -6.63836801 7.0477429 C-6.63712151 5.92154203 -6.63587502 4.79534116 -6.63459074 3.63501298 C-6.39851767 -0.99225524 -4.06505604 0.01416022 0 0 Z " fill="#000000" transform="translate(140.50694024562836,304.86706441640854)"/>
<path d="M0 0 C3.21918926 1.44514688 4.18110185 3.67161586 5.94555664 6.6862793 C6.46113884 7.55919113 6.46113884 7.55919113 6.98713684 8.44973755 C10.61082966 14.64429668 13.97756734 20.97961697 17.31665039 27.33081055 C18.61627171 29.78594546 19.92039444 32.23865804 21.22680664 34.69018555 C21.55187195 35.30024445 21.87693726 35.91030334 22.21185303 36.53884888 C25.95537549 43.53863687 29.87317726 50.43892859 33.82910156 57.32055664 C37.13975223 63.10297963 40.21298623 68.96459381 43.12915039 74.95581055 C48.38017477 75.35658967 52.26901717 73.92158724 57.00415039 71.89331055 C85.79504462 60.1924074 116.20244479 55.06188487 147.12915039 53.95581055 C148.30219727 53.91327148 149.47524414 53.87073242 150.68383789 53.8269043 C184.39676743 53.25355515 218.44406908 59.14688363 249.86206055 71.32788086 C254.66863472 73.17481358 258.99441723 74.47442931 264.12915039 74.95581055 C269.77403817 65.57568852 275.17851904 56.121314 280.23168945 46.40893555 C301.47062587 5.61433507 301.47062587 5.61433507 306.12915039 0.95581055 C309.13662417 0.61625706 311.22807317 0.39967519 314.12915039 0.95581055 C317.04240698 3.43207865 318.01472315 4.90471996 318.42895508 8.7097168 C318.06922124 12.60468513 316.70096324 15.41367135 314.83227539 18.76831055 C314.48739075 19.4106665 314.1425061 20.05302246 313.78717041 20.71484375 C312.66294253 22.80179019 311.52138495 24.87867379 310.37915039 26.95581055 C309.59617848 28.4005432 308.81428481 29.84586071 308.03344727 31.29174805 C306.09827789 34.86862419 304.14925282 38.43772214 302.19580078 42.00463867 C300.66982962 44.79602377 299.15717908 47.59455639 297.64477539 50.39331055 C293.95703515 57.20260896 290.26754677 64.00732038 286.39477539 70.71362305 C285.75572266 71.82543945 285.75572266 71.82543945 285.10375977 72.9597168 C284.31622842 74.3237663 283.52123631 75.68354989 282.71704102 77.0378418 C280.77747328 80.39296647 280.12915039 81.96485816 280.12915039 85.95581055 C280.91161133 86.16206055 281.69407227 86.36831055 282.50024414 86.58081055 C287.45181861 88.45697224 291.71571277 91.14978971 296.19165039 93.95581055 C297.12759033 94.54031982 298.06353027 95.1248291 299.02783203 95.72705078 C306.4287823 100.40479894 313.37951197 105.36749413 320.12915039 110.95581055 C320.93280029 111.60936523 320.93280029 111.60936523 321.75268555 112.27612305 C336.24408937 124.08862107 349.83153613 137.16663272 360.89819336 152.27612305 C362.12700746 153.95288644 363.37859547 155.61068207 364.63305664 157.26831055 C391.31006211 193.01820621 409.98252857 240.77065144 407.12915039 285.95581055 C405.34744077 287.73752017 402.95215215 287.08054557 400.57918727 287.08874613 C399.37067141 287.08523438 399.37067141 287.08523438 398.13774109 287.08165169 C397.2859465 287.08310513 396.43415192 287.08455857 395.55654538 287.08605605 C392.6649582 287.08974335 389.77342284 287.08621709 386.88183594 287.08279419 C384.80278591 287.08394493 382.72373609 287.08553214 380.6446867 287.08752143 C374.902478 287.0917212 369.16028578 287.08962117 363.41807699 287.08653522 C357.23669412 287.08428395 351.05531419 287.08775936 344.87393188 287.09051514 C333.45472161 287.09471663 322.03551811 287.09433586 310.616308 287.09160367 C300.06869818 287.08909228 289.52109029 287.08842946 278.97348022 287.08962631 C278.27497531 287.0897027 277.5764704 287.08977908 276.85679867 287.08985778 C274.02163978 287.0901691 271.18648089 287.0904875 268.35132201 287.09081755 C241.73249081 287.09387944 215.11366299 287.0910985 188.49483232 287.08572065 C164.82378289 287.08097472 141.15273884 287.08139934 117.48168945 287.08618164 C90.91285145 287.09153139 64.34401643 287.09366233 37.77517796 287.09056938 C34.94505882 287.09024864 32.11493969 287.0899358 29.28482056 287.08962631 C28.58792664 287.08954723 27.89103272 287.08946816 27.1730208 287.08938668 C16.62969982 287.08824719 6.08638099 287.08958324 -4.4569397 287.09210587 C-16.4401074 287.09495863 -28.42326875 287.09416745 -40.4064362 287.08882512 C-46.52692606 287.08618692 -52.64740496 287.08518503 -58.76789474 287.08847427 C-64.36112647 287.09143482 -69.954337 287.08984849 -75.54756677 287.08449672 C-77.58051545 287.0833715 -79.61346588 287.08396602 -81.64641345 287.08637251 C-84.39078189 287.08937414 -87.13507588 287.08633447 -89.87944031 287.08165169 C-90.68511755 287.08399285 -91.49079479 287.08633402 -92.32088649 287.08874613 C-97.75669927 287.06996089 -97.75669927 287.06996089 -98.87084961 285.95581055 C-101.86931418 234.57827335 -79.78729511 182.5581094 -46.49975586 144.2253418 C-45.02476288 142.57651949 -43.53815665 140.937995 -42.03881836 139.3112793 C-40.58258089 137.72909697 -39.14775449 136.12696111 -37.73413086 134.5065918 C-20.37483609 114.65404105 2.40148871 97.51865625 26.12915039 85.95581055 C26.78915039 85.95581055 27.44915039 85.95581055 28.12915039 85.95581055 C27.52264249 81.41429238 25.66647754 77.78020453 23.51586914 73.8034668 C23.15006744 73.11507721 22.78426575 72.42668762 22.40737915 71.71743774 C21.21676575 69.4809699 20.01691801 67.24960975 18.81665039 65.01831055 C17.99286926 63.475993 17.16954809 61.9334297 16.34667969 60.390625 C11.75122469 51.78682051 7.11390141 43.20564657 2.44165039 34.64331055 C1.72900024 33.33523437 1.72900024 33.33523437 1.00195312 32.00073242 C-1.0163564 28.30607771 -3.0511818 24.62538537 -5.15600586 20.97924805 C-5.8044043 19.83713867 -6.45280273 18.6950293 -7.12084961 17.51831055 C-7.66225586 16.59147461 -8.20366211 15.66463867 -8.76147461 14.7097168 C-10.14368826 11.27851741 -10.16563845 8.62333048 -9.87084961 4.95581055 C-7.55325316 1.18971632 -4.4944694 -0.22609452 0 0 Z M23.34399414 159.11987305 C18.80508999 165.70825874 17.29802649 170.96514793 18.12915039 178.95581055 C20.22694866 186.14645643 25.16911261 190.66315709 31.50415039 194.33081055 C38.68984955 196.0416913 44.33517943 195.22610441 50.82446289 191.62768555 C55.52365842 188.21877761 58.29378921 184.0219658 59.81665039 178.43237305 C60.80705386 171.72651622 59.60550334 166.58293928 55.80102539 161.01049805 C52.73724834 157.15658901 49.91241985 154.46165464 45.12915039 152.95581055 C36.73660264 152.00750007 29.00595282 152.25614196 23.34399414 159.11987305 Z M252.25415039 160.83081055 C248.39527175 166.50563208 247.56964672 171.70054186 248.47680664 178.3972168 C249.90989449 184.01801046 252.73767057 188.22097434 257.43383789 191.62768555 C262.89181331 194.65422643 267.92777649 196.14450066 274.12915039 194.95581055 C281.31988093 192.71283038 285.7294834 187.99161412 289.50415039 181.64331055 C291.26960982 174.05183501 290.46879161 167.99590831 286.69555664 161.15893555 C283.69936019 156.9448338 280.04764361 154.59530829 275.12915039 152.95581055 C265.26493884 151.93285527 259.01862803 153.536939 252.25415039 160.83081055 Z " fill="#010101" transform="translate(230.870849609375,-0.955810546875)"/>
<path d="M0 0 C0.80308594 0.350625 1.60617187 0.70125 2.43359375 1.0625 C15.7234228 7.69589821 26.11441682 20.09347109 31 34 C32.84496256 40.56686133 33.28784458 46.77214944 33.26069641 53.56843567 C33.26643473 55.11085301 33.26643473 55.11085301 33.27228898 56.6844303 C33.28256222 60.11104348 33.2786376 63.53748731 33.2746582 66.96411133 C33.27900783 69.42869725 33.28419182 71.89328181 33.29014587 74.35786438 C33.30213288 80.34646524 33.30469044 86.33500019 33.30234561 92.32360701 C33.30055863 97.19457595 33.30232022 102.06553132 33.30657005 106.93649864 C33.30716524 107.63120559 33.30776043 108.32591254 33.30837366 109.04167121 C33.30958548 110.45323263 33.31079961 111.86479405 33.31201603 113.27635547 C33.32287976 126.49910231 33.32073474 139.72182361 33.31463119 152.94457188 C33.30946425 165.02186309 33.32071364 177.09907359 33.33972941 189.17634884 C33.35913608 201.59779565 33.36735878 214.01920432 33.36360615 226.44066638 C33.36169824 233.40612265 33.36414143 240.37151026 33.37832069 247.33695412 C33.39152499 253.88940602 33.38893613 260.44172356 33.37590981 266.99418449 C33.37354871 269.39347514 33.37626187 271.7927772 33.38453293 274.19205475 C33.45898874 297.47661135 33.45898874 297.47661135 30 307 C29.5978125 308.11375 29.195625 309.2275 28.78125 310.375 C21.74656889 324.78751739 10.31082824 335.55573709 -4.9375 340.9375 C-20.85599597 345.7162135 -37.41152143 343.56236535 -51.9453125 335.91796875 C-65.7205922 327.26878418 -74.38117677 314.64870836 -78.53621197 298.97762966 C-79.21772825 294.60213274 -79.14801654 290.27205867 -79.14717102 285.85011292 C-79.15084771 284.81849641 -79.1545244 283.78687991 -79.1583125 282.7240023 C-79.16933852 279.26204142 -79.17319139 275.80011057 -79.17700195 272.33813477 C-79.18326752 269.85768031 -79.1899144 267.37722679 -79.19691467 264.89677429 C-79.21613333 257.44896703 -79.22674257 250.00116774 -79.23564246 242.55334297 C-79.24003092 239.04106887 -79.24539636 235.52879628 -79.25063133 232.01652336 C-79.2676423 220.331769 -79.28213406 208.64701555 -79.28938007 196.96225071 C-79.2912898 193.93194642 -79.29321015 190.90164215 -79.29516602 187.87133789 C-79.29564976 187.11822159 -79.2961335 186.36510529 -79.2966319 185.58916729 C-79.30492319 173.40302705 -79.33024541 161.21698527 -79.36274669 149.03088797 C-79.39588457 136.50334264 -79.41383498 123.97584722 -79.41702431 111.44825786 C-79.41918342 104.42116275 -79.42784352 97.39421111 -79.45348549 90.36715889 C-79.47757406 83.75072178 -79.4809761 77.13449538 -79.47072411 70.51800728 C-79.47023001 68.09697614 -79.47651301 65.67593208 -79.49028015 63.25494003 C-79.6013383 42.55749685 -77.57646868 27.17761892 -63.0625 11.3125 C-46.60368214 -4.57720244 -20.9825407 -9.17797464 0 0 Z " fill="#000000" transform="translate(737,299)"/>
<path d="M0 0 C11.24923677 9.12673927 18.01216164 20.92163554 21 35 C21.37829746 38.63725175 21.40674772 42.23025942 21.38095093 45.88487244 C21.3856309 46.92302662 21.39031087 47.9611808 21.39513266 49.0307942 C21.40701444 52.47891481 21.39765201 55.92663293 21.38818359 59.37475586 C21.39225234 61.85934174 21.39759592 64.34392581 21.40411377 66.82850647 C21.41634317 72.85830975 21.41459467 78.88795749 21.40587585 84.91775458 C21.39908017 89.82205143 21.39819069 94.72631693 21.4014473 99.63061714 C21.401907 100.33060383 21.40236669 101.03059052 21.40284032 101.75178893 C21.40379957 103.17414129 21.40477222 104.59649364 21.4057581 106.01884598 C21.41429817 119.33413497 21.40449996 132.64936183 21.388357 145.96464062 C21.37495801 157.36928045 21.37728112 168.77382863 21.39111328 180.1784668 C21.40719868 193.44697357 21.41347124 206.71542598 21.40427649 219.98394114 C21.40332092 221.40114978 21.40237781 222.81835843 21.4014473 224.23556709 C21.40098447 224.93271769 21.40052164 225.62986829 21.40004479 226.34814466 C21.39746355 231.24134074 21.4018072 236.1345021 21.40888596 241.02769279 C21.41822015 247.62450226 21.4114936 254.22116628 21.39420319 260.81796837 C21.39024987 263.23338282 21.39135248 265.64881187 21.39799118 268.06422043 C21.44920415 288.59680183 20.01559646 304.1952384 5.21875 319.78125 C-6.03186906 331.03186906 -18.55520945 336.24005868 -34.5 336.375 C-41.71980599 336.30698124 -48.24236905 335.73225202 -55 333 C-55.9590625 332.62101562 -56.918125 332.24203125 -57.90625 331.8515625 C-72.04398295 325.5478826 -82.57653864 314.35126851 -88.19915867 299.92277813 C-91.80003261 287.86176042 -91.55693211 275.94636142 -91.50170898 263.4465332 C-91.50549814 260.99091279 -91.51100307 258.53529453 -91.51808167 256.0796814 C-91.53053547 250.13596683 -91.52452704 244.19244734 -91.50940608 238.24875513 C-91.49243864 231.31205606 -91.49576954 224.37540877 -91.49950016 217.43869533 C-91.50536163 205.05536001 -91.49127301 192.67212678 -91.46655273 180.28881836 C-91.4426214 168.29919614 -91.43555675 156.30971018 -91.44604492 144.32006836 C-91.45747644 131.22878394 -91.45935786 118.13756234 -91.44494683 105.04627866 C-91.44342115 103.64823004 -91.44190079 102.25018142 -91.44038582 100.8521328 C-91.439628 100.16445448 -91.43887019 99.47677616 -91.43808941 98.76825911 C-91.43336504 93.94364931 -91.43518473 89.11906774 -91.43945122 84.29445839 C-91.44491679 77.79279729 -91.43405013 71.29128219 -91.41249657 64.78965378 C-91.40695194 62.40971573 -91.40644193 60.02975957 -91.41144943 57.64982033 C-91.45393733 34.55326052 -91.45393733 34.55326052 -88 25 C-87.5978125 23.88625 -87.195625 22.7725 -86.78125 21.625 C-79.04217639 5.76933699 -66.54038143 -4.20162606 -50 -10 C-32.80103507 -14.68523527 -14.21089635 -10.1172225 0 0 Z " fill="#000000" transform="translate(91,306)"/>
</svg>
