<?xml version="1.0" encoding="UTF-8"?>
<svg version="1.1" xmlns="http://www.w3.org/2000/svg" width="500" height="500">
<path d="M0 0 C1.2271875 0.26683594 2.454375 0.53367187 3.71875 0.80859375 C29.10053969 7.23979046 52.32497768 25.30897053 68 46 C66.4754289 50.19017341 63.42146775 52.18046565 59.9375 54.6875 C37.30122646 71.61960678 20.19507292 97.18407566 15.4453125 125.28125 C11.78151526 155.87717078 22.26748653 186.89790612 41 211 C52.74452302 225.36249719 66.41624505 234.86874001 83 243 C82.36311471 246.79073781 81.26745432 250.07386075 79.77734375 253.61328125 C79.09973999 255.22541504 79.09973999 255.22541504 78.40844727 256.87011719 C77.92303467 258.00610352 77.43762207 259.14208984 76.9375 260.3125 C76.43726318 261.48586914 75.93702637 262.65923828 75.42163086 263.86816406 C71.59629887 272.76348646 67.55668418 281.4586829 63 290 C62.56075195 290.82918945 62.12150391 291.65837891 61.66894531 292.51269531 C42.9512184 327.73040897 42.9512184 327.73040897 31 340 C30.21625 341.010625 29.4325 342.02125 28.625 343.0625 C25.41776651 346.651547 21.85262425 349.5079218 18.09375 352.50390625 C15.9512408 354.23252163 13.85593765 355.97199055 11.78125 357.77734375 C5.22823469 363.47748901 -1.32625132 368.83455355 -9 373 C-9.95326172 373.52412476 -9.95326172 373.52412476 -10.92578125 374.05883789 C-17.13445724 377.17914184 -22.61325172 377.66638419 -29.5 377.5625 C-30.56532959 377.54864258 -31.63065918 377.53478516 -32.72827148 377.52050781 C-42.19115143 377.24355244 -50.20174282 375.40930484 -59 372 C-60.18706543 371.54383301 -61.37413086 371.08766602 -62.59716797 370.61767578 C-68.09210027 368.50092761 -73.586314 366.38426461 -79.05102539 364.19042969 C-107.81820913 352.7029515 -131.3810272 359.92215142 -159.1875 370.25 C-162.07526979 371.32197274 -164.96481717 372.38895158 -167.85546875 373.453125 C-168.50130417 373.69476379 -169.14713959 373.93640259 -169.81254578 374.18536377 C-182.46550959 378.84262418 -200.48268798 379.68350473 -213.25 375.0625 C-216.12890625 373.67578125 -216.12890625 373.67578125 -219 372 C-219.84860596 371.51732666 -219.84860596 371.51732666 -220.71435547 371.02490234 C-271.92530077 341.52309464 -301.90062997 276.66679513 -316.6171875 222.10546875 C-319.99163216 209.19031312 -322.86546284 196.17809877 -325 183 C-325.11859375 182.2879541 -325.2371875 181.5759082 -325.359375 180.84228516 C-329.11513749 157.11726763 -329.37729257 129.43529073 -324 106 C-323.81727539 105.19997559 -323.63455078 104.39995117 -323.44628906 103.57568359 C-317.55757477 79.11672991 -305.31190916 57.89597398 -289 39 C-288.40445313 38.28070313 -287.80890625 37.56140625 -287.1953125 36.8203125 C-268.70154687 14.78707019 -243.59794336 1.50350171 -215 -1 C-189.53555454 -2.46484776 -169.54326505 3.17054106 -146.11474609 12.74804688 C-122.86637114 22.09258887 -106.84288363 17.93072934 -84.27514648 8.72094727 C-75.94360694 5.33207043 -67.69203376 2.33177787 -59 0 C-57.30423828 -0.47566406 -57.30423828 -0.47566406 -55.57421875 -0.9609375 C-37.57316641 -5.32604252 -17.96514135 -3.92347075 0 0 Z " fill="#000000" transform="translate(372,123)"/>
<path d="M0 0 C4.9419761 23.6950104 1.42115874 48.23390303 -11 69.0625 C-12.30786591 71.05858748 -13.63802938 73.04043002 -15 75 C-15.44601562 75.65097656 -15.89203125 76.30195312 -16.3515625 76.97265625 C-24.98251293 88.17171157 -38.64337647 95.67006343 -51 102 C-52.10214844 102.56589844 -53.20429688 103.13179688 -54.33984375 103.71484375 C-67.56839485 110.14107438 -82.21727385 115.1693854 -97 115 C-97.94625865 85.28383907 -93.80329454 58.24457674 -72.82348633 35.77587891 C-55.5940737 18.00249129 -25.6125764 -0.90463846 0 0 Z " fill="#000000" transform="translate(347,0)"/>
</svg>
